<svg width="31" height="34" viewBox="0 0 31 34" fill="none" xmlns="http://www.w3.org/2000/svg">
<path d="M19.608 3.29044V1.09681C19.608 0.80592 19.7227 0.526941 19.927 0.321249C20.1313 0.115557 20.4084 0 20.6973 0C20.9862 0 21.2633 0.115557 21.4676 0.321249C21.6719 0.526941 21.7867 0.80592 21.7867 1.09681V3.29044C21.7867 3.58133 21.6719 3.86031 21.4676 4.066C21.2633 4.27169 20.9862 4.38725 20.6973 4.38725C20.4084 4.38725 20.1313 4.27169 19.927 4.066C19.7227 3.86031 19.608 3.58133 19.608 3.29044ZM24.487 5.62116C24.6091 5.69629 24.7447 5.74644 24.8861 5.76877C25.0275 5.7911 25.1719 5.78516 25.311 5.75129C25.4501 5.71742 25.5812 5.65629 25.6968 5.57139C25.8124 5.48649 25.9103 5.37948 25.9848 5.25647L27.0742 3.45907C27.15 3.33608 27.2009 3.19919 27.2239 3.0563C27.2469 2.91341 27.2416 2.76735 27.2083 2.62654C27.175 2.48573 27.1143 2.35295 27.0297 2.23586C26.9452 2.11877 26.8385 2.01969 26.7157 1.94433C26.593 1.86896 26.4566 1.81881 26.3146 1.79675C26.1725 1.7747 26.0274 1.78118 25.8878 1.81582C25.7483 1.85047 25.6169 1.91259 25.5012 1.99861C25.3856 2.08463 25.288 2.19285 25.2141 2.31702L24.1248 4.11305C24.0501 4.23592 24.0002 4.37241 23.9779 4.5147C23.9556 4.657 23.9614 4.80232 23.9949 4.94236C24.0284 5.08241 24.089 5.21443 24.1732 5.3309C24.2574 5.44737 24.3635 5.54601 24.4856 5.62116H24.487ZM30.9469 7.34727C30.8583 7.07068 30.6642 6.84081 30.4074 6.70817C30.1505 6.57553 29.8519 6.55095 29.577 6.63983L27.5345 7.30477C27.2868 7.38449 27.0757 7.55074 26.9391 7.7735C26.8026 7.99627 26.7497 8.26085 26.79 8.51944C26.8303 8.77804 26.9611 9.01361 27.1588 9.18359C27.3565 9.35357 27.6081 9.44675 27.8681 9.4463C27.9818 9.44597 28.0948 9.42793 28.2031 9.39283L30.2456 8.72789C30.3822 8.68345 30.5087 8.61229 30.6178 8.51849C30.727 8.42469 30.8167 8.3101 30.8817 8.1813C30.9467 8.0525 30.9859 7.91203 30.9968 7.76796C31.0078 7.62389 30.9904 7.47906 30.9455 7.34179L30.9469 7.34727ZM26.8618 12.8231C28.0661 14.9091 28.5509 17.3378 28.2405 19.7303C27.9301 22.1228 26.8421 24.3447 25.146 26.0493C24.5576 28.1196 23.377 29.9697 21.7513 31.3689C20.1255 32.7682 18.1267 33.6546 16.004 33.9178C13.8812 34.1809 11.7285 33.8091 9.81425 32.8488C7.89997 31.8884 6.30883 30.3819 5.23921 28.5171L0.473232 20.2047C0.182239 19.6965 0.0203038 19.1238 0.00178855 18.5375C-0.0167267 17.9512 0.108751 17.3694 0.367091 16.8436C0.625432 16.3179 1.00865 15.8644 1.48276 15.5235C1.95687 15.1825 2.50722 14.9647 3.08499 14.8892L2.54031 13.9377C2.25382 13.438 2.09209 12.8758 2.06902 12.2992C2.04594 11.7227 2.16221 11.1492 2.40783 10.6279C2.65346 10.1066 3.02109 9.6531 3.47917 9.30639C3.93724 8.95968 4.47206 8.73011 5.03768 8.6374C4.75392 7.85122 4.7538 6.9896 5.03734 6.20334C5.32089 5.41708 5.87003 4.75626 6.58867 4.33652C7.24754 3.95366 8.01138 3.79466 8.76703 3.88306C9.52269 3.97146 10.23 4.30257 10.7841 4.82735C11.1238 4.33358 11.582 3.93426 12.116 3.66647C12.65 3.39868 13.2426 3.2711 13.8387 3.29558C14.4348 3.32006 15.0151 3.49581 15.5257 3.80651C16.0363 4.11721 16.4606 4.55277 16.7593 5.07276L18.3933 7.9231C18.7472 7.45696 19.2098 7.08595 19.7402 6.843C20.2706 6.60004 20.8523 6.49265 21.4338 6.53036C22.0153 6.56806 22.5786 6.74969 23.0737 7.05913C23.5687 7.36857 23.9803 7.79626 24.2718 8.30424L26.8618 12.8231ZM23.0926 25.3103C23.3921 24.1966 23.4693 23.0341 23.3198 21.8902C23.1702 20.7462 22.7967 19.6435 22.2211 18.6458L19.6338 14.1338C19.4597 13.8263 19.1743 13.5985 18.8372 13.4981C18.5001 13.3977 18.1375 13.4324 17.8253 13.595C17.513 13.7576 17.2753 14.0354 17.1619 14.3704C17.0485 14.7055 17.0682 15.0716 17.2168 15.3924L18.7719 18.0974C18.8434 18.2222 18.8898 18.3599 18.9085 18.5027C18.9271 18.6456 18.9177 18.7907 18.8806 18.9299C18.8436 19.069 18.7797 19.1995 18.6926 19.3137C18.6054 19.428 18.4968 19.5239 18.3729 19.5959C18.249 19.6679 18.1122 19.7147 17.9703 19.7335C17.8284 19.7523 17.6843 19.7427 17.5461 19.7054C17.4079 19.6681 17.2783 19.6038 17.1648 19.5161C17.0513 19.4284 16.9561 19.319 16.8845 19.1942L12.1186 10.9037C11.9316 10.6056 11.6377 10.3915 11.298 10.3058C10.9584 10.2202 10.599 10.2696 10.2945 10.4437C9.99004 10.6179 9.76393 10.9035 9.66314 11.2411C9.56235 11.5788 9.59463 11.9426 9.75328 12.2569L13.1058 18.0974C13.1819 18.2223 13.2323 18.3612 13.2542 18.506C13.276 18.6508 13.2689 18.7985 13.2331 18.9405C13.1973 19.0825 13.1337 19.2158 13.0459 19.3326C12.9581 19.4494 12.848 19.5473 12.722 19.6206C12.5961 19.6938 12.4568 19.741 12.3125 19.7591C12.1681 19.7773 12.0216 19.7662 11.8816 19.7265C11.7416 19.6868 11.6109 19.6192 11.4972 19.5278C11.3836 19.4363 11.2893 19.3229 11.2198 19.1942L6.78475 11.4699C6.69599 11.3127 6.57723 11.1748 6.4353 11.064C6.29337 10.9532 6.13108 10.8718 5.95778 10.8244C5.78447 10.7771 5.60356 10.7647 5.42548 10.788C5.2474 10.8113 5.07565 10.8698 4.92013 10.9602C4.76461 11.0506 4.62838 11.1711 4.5193 11.3147C4.41021 11.4584 4.33042 11.6223 4.28452 11.7971C4.23862 11.9719 4.22751 12.1541 4.25184 12.3333C4.27617 12.5124 4.33545 12.685 4.42627 12.8409L6.60501 16.6414L9.32842 21.3906C9.39995 21.5154 9.44637 21.6531 9.46503 21.7959C9.48369 21.9388 9.47423 22.0839 9.43718 22.223C9.40013 22.3622 9.33622 22.4926 9.24911 22.6069C9.16199 22.7212 9.05337 22.8171 8.92944 22.8891C8.80552 22.9611 8.66872 23.0079 8.52686 23.0267C8.38499 23.0454 8.24084 23.0359 8.10264 22.9986C7.96443 22.9613 7.83488 22.897 7.72137 22.8092C7.60786 22.7215 7.51262 22.6122 7.4411 22.4874L4.71768 17.7382C4.53582 17.4259 4.23865 17.1987 3.89101 17.1061C3.54337 17.0136 3.17349 17.0632 2.86209 17.2443C2.55068 17.4253 2.32303 17.723 2.22882 18.0724C2.1346 18.4218 2.18147 18.7945 2.3592 19.1092L7.12518 27.4217C7.98697 28.9248 9.27215 30.1369 10.8182 30.9046C12.3642 31.6723 14.1016 31.9611 15.8107 31.7345C17.5198 31.5079 19.1237 30.7761 20.4196 29.6316C21.7156 28.4871 22.6453 26.9814 23.0912 25.3048L23.0926 25.3103Z" fill="#3498DB"/>
</svg>
