<svg width="512" height="512" viewBox="0 0 512 512" fill="none" xmlns="http://www.w3.org/2000/svg">
<path d="M440.08 341.31C438.42 339.31 436.79 337.31 435.19 335.38C413.19 308.77 399.88 292.71 399.88 217.38C399.88 178.38 390.55 146.38 372.16 122.38C358.6 104.65 340.27 91.2 316.11 81.26C315.799 81.0871 315.521 80.8602 315.29 80.59C306.6 51.49 282.82 32 256 32C229.18 32 205.41 51.49 196.72 80.56C196.488 80.8203 196.214 81.04 195.91 81.21C139.53 104.42 112.13 148.95 112.13 217.35C112.13 292.71 98.84 308.77 76.82 335.35C75.22 337.28 73.59 339.24 71.93 341.28C67.642 346.451 64.9252 352.743 64.1011 359.41C63.2771 366.077 64.3802 372.84 67.28 378.9C73.45 391.9 86.6 399.97 101.61 399.97H410.5C425.44 399.97 438.5 391.91 444.69 378.97C447.602 372.909 448.716 366.14 447.899 359.465C447.082 352.79 444.368 346.49 440.08 341.31ZM256 480C270.45 479.988 284.628 476.066 297.03 468.648C309.431 461.231 319.594 450.596 326.44 437.87C326.763 437.26 326.922 436.577 326.902 435.888C326.883 435.198 326.686 434.525 326.329 433.934C325.973 433.344 325.47 432.855 324.869 432.516C324.268 432.177 323.59 431.999 322.9 432H189.12C188.429 431.998 187.75 432.174 187.147 432.512C186.545 432.851 186.041 433.339 185.683 433.93C185.326 434.521 185.127 435.195 185.108 435.885C185.088 436.576 185.247 437.259 185.57 437.87C192.415 450.594 202.577 461.229 214.976 468.646C227.376 476.063 241.551 479.987 256 480Z" fill="black"/>
</svg>
