<svg width="27" height="24" viewBox="0 0 27 24" fill="none" xmlns="http://www.w3.org/2000/svg">
<path d="M9.33333 10.6667C10.3882 10.6667 11.4193 10.3539 12.2964 9.76784C13.1734 9.18181 13.857 8.34885 14.2607 7.37431C14.6644 6.39978 14.77 5.32742 14.5642 4.29285C14.3584 3.25829 13.8504 2.30798 13.1046 1.5621C12.3587 0.816219 11.4084 0.308269 10.3738 0.102481C9.33925 -0.103307 8.26689 0.00231083 7.29235 0.405978C6.31782 0.809646 5.48486 1.49323 4.89883 2.37029C4.31279 3.24736 4 4.2785 4 5.33334C4 6.74782 4.5619 8.10438 5.5621 9.10457C6.56229 10.1048 7.91884 10.6667 9.33333 10.6667ZM9.33333 2.66667C9.86075 2.66667 10.3763 2.82307 10.8149 3.11608C11.2534 3.4091 11.5952 3.82558 11.797 4.31285C11.9988 4.80012 12.0517 5.33629 11.9488 5.85358C11.8459 6.37086 11.5919 6.84601 11.219 7.21895C10.846 7.59189 10.3709 7.84587 9.85357 7.94876C9.33629 8.05166 8.80011 7.99885 8.31284 7.79701C7.82557 7.59518 7.4091 7.25339 7.11608 6.81486C6.82306 6.37632 6.66667 5.86075 6.66667 5.33334C6.66667 4.62609 6.94762 3.94781 7.44771 3.44772C7.94781 2.94762 8.62609 2.66667 9.33333 2.66667ZM20 13.3333C20.7911 13.3333 21.5645 13.0987 22.2223 12.6592C22.8801 12.2197 23.3928 11.595 23.6955 10.8641C23.9983 10.1332 24.0775 9.3289 23.9231 8.55297C23.7688 7.77705 23.3878 7.06432 22.8284 6.50491C22.269 5.9455 21.5563 5.56454 20.7804 5.41019C20.0044 5.25585 19.2002 5.33507 18.4693 5.63782C17.7384 5.94057 17.1136 6.45326 16.6741 7.11105C16.2346 7.76885 16 8.54221 16 9.33333C16 10.3942 16.4214 11.4116 17.1716 12.1618C17.9217 12.9119 18.9391 13.3333 20 13.3333ZM20 8C20.2637 8 20.5215 8.0782 20.7408 8.22471C20.96 8.37122 21.1309 8.57946 21.2318 8.82309C21.3328 9.06672 21.3592 9.33481 21.3077 9.59346C21.2563 9.8521 21.1293 10.0897 20.9428 10.2761C20.7563 10.4626 20.5188 10.5896 20.2601 10.641C20.0015 10.6925 19.7334 10.6661 19.4898 10.5652C19.2461 10.4643 19.0379 10.2934 18.8914 10.0741C18.7449 9.85483 18.6667 9.59704 18.6667 9.33333C18.6667 8.97971 18.8071 8.64058 19.0572 8.39053C19.3072 8.14048 19.6464 8 20 8ZM20 14.6667C18.5224 14.6683 17.0873 15.1608 15.92 16.0667C14.614 14.7658 12.9521 13.8808 11.1438 13.5232C9.33545 13.1657 7.46176 13.3516 5.75897 14.0575C4.05618 14.7634 2.60055 15.9578 1.57565 17.4899C0.550759 19.022 0.00249359 20.8233 0 22.6667C0 23.0203 0.140476 23.3594 0.390524 23.6095C0.640573 23.8595 0.979711 24 1.33333 24C1.68696 24 2.02609 23.8595 2.27614 23.6095C2.52619 23.3594 2.66667 23.0203 2.66667 22.6667C2.66667 20.8986 3.36905 19.2029 4.61929 17.9526C5.86953 16.7024 7.56522 16 9.33333 16C11.1014 16 12.7971 16.7024 14.0474 17.9526C15.2976 19.2029 16 20.8986 16 22.6667C16 23.0203 16.1405 23.3594 16.3905 23.6095C16.6406 23.8595 16.9797 24 17.3333 24C17.687 24 18.0261 23.8595 18.2761 23.6095C18.5262 23.3594 18.6667 23.0203 18.6667 22.6667C18.6698 21.1046 18.2752 19.5674 17.52 18.2C18.1092 17.7344 18.8176 17.444 19.5642 17.3622C20.3107 17.2804 21.0652 17.4104 21.7413 17.7373C22.4174 18.0642 22.9878 18.5749 23.3872 19.2108C23.7867 19.8468 23.999 20.5823 24 21.3333C24 21.687 24.1405 22.0261 24.3905 22.2761C24.6406 22.5262 24.9797 22.6667 25.3333 22.6667C25.687 22.6667 26.0261 22.5262 26.2761 22.2761C26.5262 22.0261 26.6667 21.687 26.6667 21.3333C26.6667 19.5652 25.9643 17.8695 24.714 16.6193C23.4638 15.369 21.7681 14.6667 20 14.6667Z" fill="black"/>
</svg>
