<svg width="31" height="30" viewBox="0 0 31 30" fill="none" xmlns="http://www.w3.org/2000/svg">
<path d="M20.0208 6.25C21.8349 6.25 22.742 6.25 23.3935 6.67133C23.6756 6.85372 23.9178 7.0881 24.1063 7.36107C24.5416 7.99163 24.5416 8.86942 24.5416 10.625L24.5416 22.5C24.5416 24.857 24.5416 26.0355 23.785 26.7678C23.0284 27.5 21.8106 27.5 19.375 27.5L11.625 27.5C9.18939 27.5 7.97159 27.5 7.21495 26.7678C6.45831 26.0355 6.45831 24.857 6.45831 22.5L6.45831 10.625C6.45831 8.86942 6.45831 7.99163 6.89368 7.36107C7.08216 7.0881 7.32435 6.85372 7.60642 6.67133C8.258 6.25 9.16505 6.25 10.9791 6.25" stroke="#33363F" stroke-width="2"/>
<path d="M11.625 6.25C11.625 4.86929 12.7816 3.75 14.2083 3.75L16.7917 3.75C18.2184 3.75 19.375 4.86929 19.375 6.25C19.375 7.63071 18.2184 8.75 16.7917 8.75L14.2083 8.75C12.7816 8.75 11.625 7.63071 11.625 6.25Z" stroke="#33363F" stroke-width="2"/>
<path d="M11.625 15L19.375 15" stroke="#33363F" stroke-width="2" stroke-linecap="round"/>
<path d="M11.625 20L16.7917 20" stroke="#33363F" stroke-width="2" stroke-linecap="round"/>
</svg>
