<svg width="25" height="28" viewBox="0 0 25 28" fill="none" xmlns="http://www.w3.org/2000/svg">
    <path
        d="M12.0417 3.54167C15.2353 3.54167 18.2982 4.81034 20.5564 7.06859C22.8147 9.32684 24.0833 12.3897 24.0833 15.5833C24.0833 18.777 22.8147 21.8398 20.5564 24.0981C18.2982 26.3563 15.2353 27.625 12.0417 27.625C8.84802 27.625 5.78517 26.3563 3.52692 24.0981C1.26867 21.8398 0 18.777 0 15.5833C0 12.3897 1.26867 9.32684 3.52692 7.06859C5.78517 4.81034 8.84802 3.54167 12.0417 3.54167ZM12.0417 5.66667C9.4116 5.66667 6.88926 6.71146 5.02952 8.57119C3.16979 10.4309 2.125 12.9533 2.125 15.5833C2.125 18.2134 3.16979 20.7357 5.02952 22.5955C6.88926 24.4552 9.4116 25.5 12.0417 25.5C14.6717 25.5 17.1941 24.4552 19.0538 22.5955C20.9135 20.7357 21.9583 18.2134 21.9583 15.5833C21.9583 12.9533 20.9135 10.4309 19.0538 8.57119C17.1941 6.71146 14.6717 5.66667 12.0417 5.66667ZM12.0417 7.79167C12.2984 7.79168 12.5465 7.88466 12.74 8.05342C12.9335 8.22218 13.0593 8.4553 13.0942 8.70967L13.1042 8.85417V15.2292C13.1041 15.4984 13.0018 15.7575 12.818 15.9542C12.6343 16.1509 12.3827 16.2705 12.1141 16.2889C11.8455 16.3072 11.58 16.2229 11.3712 16.0531C11.1623 15.8832 11.0258 15.6404 10.9891 15.3737L10.9792 15.2292V8.85417C10.9792 8.57237 11.0911 8.30212 11.2904 8.10287C11.4896 7.90361 11.7599 7.79167 12.0417 7.79167ZM22.1666 3.70317L22.2842 3.78817L23.9247 5.15383C24.1301 5.32659 24.2625 5.57069 24.2953 5.83708C24.3281 6.10346 24.2589 6.3724 24.1016 6.58985C23.9442 6.80729 23.7104 6.95713 23.4471 7.00926C23.1838 7.06138 22.9106 7.01193 22.6822 6.87083L22.5661 6.78583L20.9242 5.42017C20.7188 5.24741 20.5863 5.00331 20.5535 4.73692C20.5207 4.47054 20.5899 4.2016 20.7473 3.98415C20.9046 3.76671 21.1384 3.61687 21.4017 3.56474C21.665 3.51262 21.9383 3.56207 22.1666 3.70317ZM15.2292 0C15.4984 8.25103e-05 15.7575 0.102346 15.9542 0.286128C16.1509 0.46991 16.2705 0.721506 16.2889 0.99008C16.3072 1.25865 16.2229 1.52418 16.0531 1.73301C15.8832 1.94183 15.6404 2.07839 15.3737 2.11508L15.2292 2.125H8.85417C8.58497 2.12492 8.32583 2.02265 8.12913 1.83887C7.93242 1.65509 7.81281 1.40349 7.79446 1.13492C7.77611 0.866346 7.8604 0.60082 8.03028 0.391993C8.20016 0.183167 8.44298 0.0466103 8.70967 0.00991662L8.85417 0H15.2292Z"
        fill="black" />
</svg>